<?xml version="1.0" standalone="no"?>
<!DOCTYPE svg PUBLIC "-//W3C//DTD SVG 20010904//EN"
 "http://www.w3.org/TR/2001/REC-SVG-20010904/DTD/svg10.dtd">
<svg version="1.0" xmlns="http://www.w3.org/2000/svg"
 width="2318.000000pt" height="2318.000000pt" viewBox="0 0 2318.000000 2318.000000"
 preserveAspectRatio="xMidYMid meet">

<g transform="translate(0.000000,2318.000000) scale(0.100000,-0.100000)"
fill="#000000" stroke="none">
<path d="M11040 23159 c-2546 -118 -4982 -1078 -6935 -2734 -329 -279 -789
-722 -1066 -1025 -733 -805 -1338 -1687 -1823 -2658 -605 -1210 -988 -2511
-1140 -3872 -77 -689 -89 -1527 -31 -2240 198 -2422 1161 -4721 2756 -6580
376 -438 860 -919 1304 -1295 1597 -1354 3528 -2250 5575 -2589 1858 -308
3777 -159 5545 428 3997 1329 6972 4731 7744 8856 136 725 195 1370 195 2140
0 444 -9 665 -45 1055 -243 2694 -1421 5204 -3345 7129 -1970 1971 -4575 3167
-7329 3366 -416 30 -1000 38 -1405 19z m1045 -409 c1252 -59 2453 -316 3601
-771 739 -293 1396 -637 2069 -1084 1615 -1072 2929 -2551 3805 -4280 644
-1273 1039 -2669 1160 -4100 47 -567 47 -1283 0 -1850 -193 -2291 -1080 -4451
-2555 -6219 -474 -567 -1019 -1103 -1595 -1566 -867 -698 -1847 -1268 -2884
-1679 -2721 -1078 -5773 -1039 -8466 109 -1308 558 -2494 1359 -3510 2371
-1846 1838 -2984 4232 -3239 6809 -42 420 -46 524 -46 1100 0 576 4 680 46
1100 254 2576 1391 4966 3235 6806 1617 1612 3666 2684 5904 3088 465 84 972
142 1455 165 242 12 773 12 1020 1z"/>
<path d="M10705 21689 c-305 -26 -571 -163 -707 -363 -99 -145 -133 -274 -125
-470 9 -208 57 -341 165 -458 127 -137 312 -213 687 -283 231 -43 286 -55 385
-85 162 -49 226 -108 237 -215 15 -147 -99 -250 -317 -285 -230 -36 -517 39
-762 198 -70 46 -77 49 -91 34 -25 -30 -277 -391 -283 -406 -13 -34 285 -198
463 -255 154 -50 291 -73 473 -78 99 -3 202 -1 255 6 366 47 628 207 750 455
55 111 75 204 75 345 0 185 -32 308 -112 427 -127 190 -340 290 -803 374 -322
59 -442 98 -507 163 -36 36 -58 96 -58 159 1 87 80 174 190 209 191 61 445 19
717 -117 59 -30 110 -51 114 -46 4 4 64 105 132 224 90 156 122 219 114 226
-33 25 -166 96 -239 128 -222 95 -494 136 -753 113z"/>
<path d="M12546 21683 c-12 -42 -99 -494 -95 -496 2 -2 175 -38 383 -80 209
-43 382 -79 384 -82 3 -2 -87 -454 -198 -1002 -112 -549 -204 -1007 -204
-1017 -1 -18 27 -26 276 -77 l277 -56 10 46 c5 25 98 483 206 1016 109 534
199 972 201 974 2 2 177 -31 389 -74 211 -43 386 -77 388 -74 7 8 105 504 101
508 -4 4 -2090 431 -2105 431 -4 0 -10 -8 -13 -17z"/>
<path d="M7908 21002 c-493 -197 -899 -360 -902 -363 -8 -8 951 -2424 961
-2422 4 1 413 162 908 358 495 196 907 360 917 364 14 5 3 39 -79 243 -52 131
-98 236 -102 234 -40 -24 -1305 -516 -1311 -509 -20 22 -200 497 -190 503 6 3
259 105 563 225 303 120 556 221 560 225 4 4 -34 111 -84 239 -73 183 -95 232
-108 228 -9 -2 -261 -101 -561 -220 -300 -119 -551 -217 -558 -219 -13 -3
-210 477 -200 487 3 3 290 118 639 256 349 138 638 255 643 259 12 11 -168
465 -185 467 -8 0 -418 -159 -911 -355z"/>
<path d="M15607 20903 c-108 -188 -1267 -2266 -1265 -2268 20 -20 493 -274
498 -268 5 4 95 163 201 353 106 190 196 349 200 354 5 5 93 -38 203 -100
l195 -109 6 -40 c3 -22 21 -247 41 -500 20 -253 39 -463 42 -466 16 -16 566
-318 570 -314 4 3 -64 808 -91 1083 l-2 23 160 3 c182 3 234 14 362 77 162 80
290 216 388 414 78 156 99 252 92 420 -4 114 -8 140 -35 214 -18 46 -53 118
-79 160 -57 92 -200 237 -303 307 -65 45 -1161 664 -1174 664 -3 0 -7 -3 -9
-7z m529 -874 c148 -83 293 -170 323 -192 121 -93 185 -229 162 -344 -27 -138
-132 -271 -243 -309 -72 -25 -175 -23 -258 6 -68 23 -620 327 -620 341 0 13
357 649 364 649 2 0 124 -68 272 -151z"/>
<path d="M5685 19594 c-308 -47 -578 -178 -809 -394 -462 -433 -577 -1127
-274 -1656 193 -337 493 -570 853 -661 150 -38 405 -44 565 -13 564 107 1035
575 1147 1138 21 108 24 364 4 472 -49 273 -179 518 -386 726 -189 192 -403
311 -662 369 -67 16 -374 28 -438 19z m219 -569 c172 -30 309 -100 439 -224
184 -175 277 -379 278 -606 1 -210 -67 -378 -215 -533 -274 -287 -676 -332
-1009 -112 -171 112 -305 290 -367 485 -34 108 -39 294 -11 404 89 341 400
590 752 600 26 0 85 -6 133 -14z"/>
<path d="M17380 18220 c-487 -522 -885 -953 -885 -957 0 -5 77 -80 170 -167
94 -88 186 -175 206 -193 l36 -34 824 883 c453 485 854 915 892 954 l67 71
-209 197 c-116 108 -211 196 -213 195 -2 0 -401 -428 -888 -949z"/>
<path d="M11185 18229 c-968 -62 -1880 -319 -2710 -762 -876 -468 -1616 -1101
-2210 -1892 -775 -1031 -1226 -2247 -1315 -3545 -13 -187 -13 -693 0 -880 89
-1299 540 -2514 1317 -3547 458 -611 1004 -1127 1638 -1550 1358 -905 2991
-1275 4620 -1047 2021 283 3808 1497 4836 3285 852 1482 1094 3252 674 4927
-319 1275 -1031 2449 -2017 3329 -1079 963 -2399 1535 -3848 1668 -207 19
-781 28 -985 14z m760 -409 c230 -15 424 -36 632 -70 1534 -249 2902 -1049
3881 -2268 643 -802 1082 -1762 1267 -2772 70 -386 98 -705 98 -1120 0 -319
-8 -464 -43 -756 -189 -1560 -969 -2996 -2186 -4020 -1120 -943 -2545 -1464
-4004 -1464 -1969 1 -3806 922 -4999 2510 -672 893 -1094 1968 -1210 3080 -43
404 -43 896 0 1300 245 2349 1815 4369 4040 5201 587 219 1182 341 1864 382
127 8 516 6 660 -3z"/>
<path d="M11576 15090 c-62 -57 -136 -159 -181 -249 -96 -192 -101 -417 -13
-585 33 -61 83 -115 309 -331 85 -81 112 -114 140 -170 l34 -70 -3 -310 -3
-310 20 25 c33 41 138 238 180 340 51 122 76 242 67 329 -16 179 -118 339
-322 507 -165 136 -199 183 -225 314 -16 85 -6 266 25 419 14 69 24 127 22
129 -3 2 -25 -15 -50 -38z"/>
<path d="M11103 13982 c-42 -74 -55 -146 -51 -271 8 -211 62 -310 272 -495 96
-85 122 -135 138 -265 6 -50 15 -91 19 -91 9 0 67 48 92 75 61 70 95 200 76
300 -18 100 -61 168 -183 295 -125 129 -146 157 -262 352 l-81 137 -20 -37z"/>
<path d="M9322 12314 c-119 -31 -678 -216 -708 -235 -49 -30 -78 -98 -71 -162
4 -29 76 -268 161 -532 85 -263 154 -480 153 -482 -2 -1 -223 140 -492 314
-269 173 -500 319 -513 324 -40 15 -96 10 -142 -13 -42 -21 -61 -48 -255 -347
-207 -321 -209 -325 -213 -385 -6 -108 4 -118 258 -282 l145 -94 -104 0 c-131
0 -178 -19 -217 -87 -25 -41 -26 -50 -22 -136 16 -282 179 -593 410 -784 202
-167 448 -280 753 -348 66 -15 122 -28 124 -30 1 -2 100 -210 218 -462 118
-252 222 -467 231 -477 10 -10 35 -27 57 -37 38 -18 135 -19 2520 -19 2385 0
2482 1 2520 19 22 10 48 27 58 39 10 11 115 226 234 478 118 253 216 460 217
461 1 1 54 13 118 27 429 91 783 305 973 587 98 147 172 338 195 509 13 94 8
130 -26 182 -44 69 -59 72 -336 78 l-247 5 157 100 c180 115 207 136 229 178
19 38 21 124 3 157 -21 40 -391 613 -409 634 -23 27 -90 56 -131 56 -53 0
-108 -31 -450 -253 -173 -113 -316 -204 -318 -202 -2 2 71 147 162 324 94 181
168 338 172 361 8 50 -15 116 -54 152 -15 14 -179 103 -366 198 -334 170 -339
172 -392 168 -88 -7 -115 -36 -212 -226 l-82 -162 -246 126 -245 126 -63 -4
c-105 -6 -108 -10 -295 -374 -90 -176 -167 -323 -171 -327 -4 -5 -122 95 -261
222 -140 127 -268 238 -286 246 -36 18 -125 20 -156 4 -12 -6 -41 -30 -64 -52
-24 -23 -43 -38 -43 -34 0 4 -7 67 -16 140 -17 140 -28 171 -72 212 -54 50
-73 50 -476 5 -204 -22 -384 -46 -400 -53 -17 -6 -44 -23 -60 -38 l-31 -26
-150 55 c-183 67 -238 72 -304 29 -54 -36 -51 -28 -242 -564 -85 -238 -156
-433 -159 -433 -3 0 -79 231 -169 513 -90 281 -172 529 -183 549 -21 44 -78
84 -128 91 -19 2 -59 -2 -88 -9z m58 -756 c210 -653 347 -1083 354 -1111 l7
-27 -172 2 -172 3 -23 70 c-99 298 -424 1318 -422 1320 7 6 284 94 299 94 12
1 43 -83 129 -351z m4789 240 c75 -39 138 -72 139 -74 2 -1 -114 -233 -259
-515 l-262 -512 -98 -63 c-54 -35 -102 -64 -106 -64 -5 0 -43 33 -85 73 l-77
72 125 240 c69 132 202 392 297 578 94 185 176 337 181 337 4 0 70 -32 145
-72z m-2711 -148 c32 -300 70 -631 103 -915 16 -137 29 -265 29 -282 l0 -33
-164 0 -164 0 -6 38 c-3 20 -31 263 -61 539 l-56 502 42 118 c26 70 44 138 45
168 l2 50 88 11 c49 6 96 11 104 10 12 -1 20 -42 38 -206z m-798 78 c80 -28
146 -52 148 -53 4 -3 -75 -228 -274 -782 l-169 -473 -118 0 c-134 0 -120 -10
-154 114 l-17 64 208 584 c115 320 211 586 213 591 6 11 8 11 163 -45z m2656
-64 l144 -76 -152 -296 c-83 -163 -156 -303 -162 -310 -9 -9 -39 12 -134 98
-67 61 -122 113 -122 117 0 7 274 543 278 543 2 0 68 -34 148 -76z m-1055
-397 c140 -127 378 -344 529 -482 151 -137 300 -272 331 -300 32 -27 58 -53
58 -57 1 -5 -106 -8 -236 -8 l-238 0 -145 131 c-80 72 -265 239 -412 372 -147
132 -269 250 -272 261 -2 12 -7 55 -11 96 l-7 75 67 73 c37 39 70 72 73 72 4
0 122 -105 263 -233z m3020 -408 c6 -12 9 -22 7 -24 -2 -1 -147 -95 -323 -209
l-320 -206 -300 0 c-259 0 -297 2 -285 14 8 8 249 165 535 349 l519 335 78
-119 c43 -66 83 -129 89 -140z m-6890 -91 l532 -343 -303 -3 -302 -2 -322 206
c-176 114 -323 209 -325 210 -6 5 171 274 180 274 5 0 248 -154 540 -342z
m2489 -205 c12 -100 13 -136 4 -140 -6 -2 -38 -3 -71 -1 l-60 3 50 142 c28 79
53 140 56 137 3 -3 13 -66 21 -141z m1220 -96 c0 -5 -5 -17 -10 -28 -9 -15
-22 -19 -69 -19 -67 0 -63 -8 -77 134 l-7 70 82 -75 c44 -41 81 -78 81 -82z
m3430 -422 c0 -7 -20 -53 -45 -101 -45 -91 -114 -178 -203 -257 -184 -163
-461 -268 -817 -307 -71 -8 -911 -10 -2915 -8 l-2815 4 -115 22 c-238 46 -430
117 -571 213 -88 59 -202 171 -255 251 -42 62 -94 167 -94 188 0 6 1435 10
3915 9 3268 0 3915 -2 3915 -14z m-1310 -1050 c0 -9 -262 -569 -273 -583 -8
-9 -482 -12 -2335 -10 l-2325 3 -139 294 c-76 162 -138 296 -138 298 0 2 1172
3 2605 3 1433 0 2605 -2 2605 -5z"/>
<path d="M18404 17274 c-604 -383 -1100 -698 -1102 -699 -5 -5 292 -474 300
-475 4 0 319 198 700 439 381 242 694 438 696 436 2 -1 -160 -441 -358 -977
l-362 -974 129 -202 c70 -111 132 -202 136 -202 13 0 2196 1384 2197 1392 0
16 -293 468 -304 467 -6 0 -310 -191 -676 -423 -366 -232 -666 -420 -668 -416
-1 4 153 424 343 935 190 511 346 934 348 940 1 8 -198 335 -268 437 -10 16
-128 -56 -1111 -678z"/>
<path d="M3201 17323 c-10 -21 -70 -133 -133 -249 l-115 -212 437 -236 c240
-130 444 -242 453 -249 15 -11 -12 -64 -233 -472 -138 -255 -255 -460 -262
-459 -7 1 -213 110 -457 242 l-444 241 -134 -247 c-73 -135 -132 -250 -130
-255 2 -7 2261 -1236 2280 -1240 9 -2 281 493 274 499 -2 2 -208 115 -458 250
-250 136 -455 247 -456 248 -5 4 497 921 506 924 6 2 210 -104 454 -236 243
-133 448 -242 455 -244 11 -3 289 490 280 497 -14 11 -2282 1235 -2289 1235
-5 0 -17 -17 -28 -37z"/>
<path d="M20095 14710 c-244 -20 -492 -107 -695 -243 -104 -70 -265 -233 -334
-340 -147 -225 -209 -442 -210 -727 0 -172 11 -262 54 -425 86 -327 260 -607
522 -841 46 -40 89 -74 96 -74 16 0 1096 231 1101 236 4 4 -228 1095 -234
1102 -2 2 -479 -98 -481 -101 0 -1 26 -127 59 -279 33 -153 58 -280 55 -283
-3 -3 -85 -23 -182 -44 l-177 -38 -54 59 c-147 159 -245 436 -232 658 17 289
174 519 442 650 128 63 232 90 368 97 334 18 632 -153 765 -436 53 -116 75
-238 70 -401 -4 -122 -8 -145 -41 -242 -20 -58 -49 -133 -65 -165 l-30 -58
239 -125 c132 -69 245 -126 253 -128 16 -4 95 163 130 276 75 239 75 541 0
842 -126 506 -501 884 -990 999 -73 17 -312 45 -334 39 -3 0 -46 -4 -95 -8z"/>
<path d="M2000 14173 c-192 -203 -320 -451 -385 -743 -26 -117 -31 -355 -10
-465 56 -302 252 -523 535 -605 95 -28 314 -39 399 -20 154 33 301 146 416
319 60 91 159 279 239 455 93 204 209 362 283 387 19 6 58 9 87 7 209 -18 274
-249 162 -575 -55 -161 -161 -318 -315 -466 -81 -78 -90 -91 -79 -105 11 -15
300 -364 317 -384 4 -4 40 22 81 58 212 186 379 440 470 713 190 571 63 1056
-325 1247 -111 55 -221 84 -345 91 -122 7 -219 -9 -310 -53 -201 -96 -317
-246 -530 -681 -161 -330 -225 -417 -320 -443 -100 -27 -218 36 -257 138 -23
61 -23 203 1 292 40 151 159 348 299 497 l66 69 -182 182 c-100 100 -187 182
-194 182 -6 0 -52 -44 -103 -97z"/>
<path d="M2403 11338 c44 -1730 573 -3393 1540 -4843 825 -1237 1936 -2254
3252 -2976 153 -83 515 -264 638 -317 l47 -21 0 227 0 227 -158 77 c-666 324
-1317 760 -1920 1284 -174 151 -635 609 -783 779 -449 513 -826 1048 -1138
1617 -518 945 -865 2015 -1000 3078 -42 327 -71 734 -71 988 l0 132 -207 0
-206 0 6 -252z"/>
<path d="M20367 11508 c-4 -46 -7 -128 -7 -183 0 -55 -5 -172 -10 -260 -138
-2166 -1033 -4146 -2565 -5680 -675 -675 -1452 -1234 -2307 -1661 l-178 -89 0
-223 0 -223 23 6 c43 13 547 264 694 346 1009 561 1893 1291 2626 2168 1031
1233 1729 2738 1997 4304 81 475 118 864 134 1415 l5 162 -203 0 -203 0 -6
-82z"/>
<path d="M13615 4253 c-31 -98 -61 -193 -67 -211 -5 -18 -8 -35 -6 -38 3 -2
49 9 104 24 l99 27 101 165 c56 91 101 166 100 167 -2 2 -259 43 -270 43 -3 0
-30 -80 -61 -177z"/>
<path d="M13736 3909 c-318 -87 -581 -161 -584 -164 -5 -4 415 -1551 427
-1571 4 -7 198 41 591 149 322 88 587 162 589 163 4 4 -51 221 -60 236 -4 6
-179 -37 -454 -112 -245 -67 -450 -119 -453 -115 -12 10 -120 410 -113 416 3
4 175 53 381 109 206 56 382 105 391 107 14 4 11 20 -17 125 -19 66 -35 122
-36 123 -2 2 -181 -46 -398 -105 -217 -60 -395 -108 -396 -107 -4 4 -113 411
-111 413 1 1 196 54 432 118 237 64 437 120 446 124 14 6 13 20 -17 126 -18
65 -34 119 -36 121 -2 1 -264 -69 -582 -156z"/>
<path d="M9195 3904 c-319 -68 -572 -334 -640 -673 -24 -117 -17 -317 15 -416
92 -289 301 -486 601 -566 112 -31 339 -33 439 -6 67 19 243 98 253 113 4 7
-102 206 -118 223 -3 2 -37 -10 -77 -28 -157 -67 -264 -83 -388 -57 -197 42
-348 170 -410 352 -44 126 -43 267 1 404 92 281 363 453 626 396 146 -30 267
-109 367 -236 30 -38 56 -75 58 -81 3 -10 193 107 232 141 13 13 -71 129 -149
205 -40 39 -106 89 -149 114 -89 51 -241 105 -336 120 -90 15 -242 12 -325 -5z"/>
<path d="M12478 3664 c-329 -34 -601 -64 -606 -66 -7 -3 155 -1617 163 -1626
4 -5 274 24 279 29 1 2 -12 144 -30 314 -19 171 -33 319 -31 330 2 18 27 22
405 61 222 23 406 44 408 47 3 3 0 61 -7 130 l-12 125 -36 -5 c-113 -13 -786
-81 -788 -79 -1 1 -13 102 -26 223 l-23 222 36 5 c19 4 213 24 430 46 217 22
410 43 429 46 l33 5 -7 86 c-4 47 -10 104 -13 127 l-7 42 -597 -62z"/>
<path d="M10432 2863 l-422 -798 78 -7 c42 -3 108 -8 146 -10 l70 -3 95 185
c94 182 97 185 130 188 28 3 743 -47 747 -52 1 0 31 -92 68 -202 l67 -202 52
-6 c29 -3 97 -8 151 -12 94 -6 99 -6 94 12 -4 17 -567 1624 -583 1666 -5 12
-27 17 -93 22 -48 4 -108 9 -133 12 l-45 5 -422 -798z m643 101 c63 -181 112
-330 110 -332 -6 -6 -546 35 -552 42 -5 4 37 88 244 484 42 79 77 141 80 139
2 -3 56 -153 118 -333z"/>
</g>
</svg>
